{"title":"Attack.Of.The.Show.2010.07.28.HDTV.XViD-SRU","uid":5728486,"size":364386375,"categoryP":"other","categoryS":"other","magnet":"?xt=urn:btih:53d8785c26be6b179f22d78659088d3c35c64d71&amp;dn=Attack.Of.The.Show.2010.07.28.HDTV.XViD-SRU&amp;tr=udp%3A%2F%2Ftracker.openbittorrent.com%3A80&amp;tr=udp%3A%2F%2Fopen.demonii.com%3A1337&amp;tr=udp%3A%2F%2Ftracker.coppersurfer.tk%3A6969&amp;tr=udp%3A%2F%2Fexodus.desync.com%3A6969","seeders":0,"leechers":1,"uploader":"rec0d","files":26,"time":1280554286,"description":"General\nComplete name                    : Attack.Of.The.Show.2010.07.28.HDTV.XViD-SRU.avi\nFormat                           : AVI\nFormat/Info                      : Audio Video Interleave\nFile size                        : 352 MiB\nDuration                         : 42mn 27s\nOverall bit rate                 : 1 158 Kbps\nWriting application              : Lavf51.12.1\nWriting library                  : VirtualDub build 32817/release\n\nVideo\nID                               : 0\nFormat                           : MPEG-4 Visual\nFormat profile                   : Advanced Simple@L5\nFormat settings, BVOP            : Yes\nFormat settings, QPel            : No\nFormat settings, GMC             : No warppoints\nFormat settings, Matrix          : Default (H.263)\nMuxing mode                      : Packed bitstream\nCodec ID                         : XVID\nCodec ID/Hint                    : XviD\nDuration                         : 42mn 27s\nBit rate                         : 1 018 Kbps\nWidth                            : 624 pixels\nHeight                           : 352 pixels\nDisplay aspect ratio             : 16:9\nFrame rate                       : 29.970 fps\nColor space                      : YUV\nChroma subsampling               : 4:2:0\nBit depth                        : 8 bits\nScan type                        : Progressive\nBits/(Pixel*Frame)               : 0.155\nStream size                      : 309 MiB (88%)\nWriting library                  : XviD 1.2.1 (UTC 2008-12-04)\n\nAudio\nID                               : 1\nFormat                           : MPEG Audio\nFormat version                   : Version 1\nFormat profile                   : Layer 3\nMode                             : Joint stereo\nMode extension                   : MS Stereo\nCodec ID                         : 55\nCodec ID/Hint                    : MP3\nDuration                         : 42mn 27s\nBit rate mode                    : Constant\nBit rate                         : 128 Kbps\nChannel(s)                       : 2 channels\nSampling rate                    : 44.1 KHz\nStream size                      : 38.9 MiB (11%)\nAlignment                        : Split accross interleaves\nInterleave, duration             : 33 ms (1.00 video frame)\nInterleave, preload duration     : 500 ms","torrent":{"xt":"urn:btih:53d8785c26be6b179f22d78659088d3c35c64d71","amp;dn":"Attack.Of.The.Show.2010.07.28.HDTV.XViD-SRU","amp;tr":["udp%3A%2F%2Ftracker.openbittorrent.com%3A80","udp%3A%2F%2Fopen.demonii.com%3A1337","udp%3A%2F%2Ftracker.coppersurfer.tk%3A6969","udp%3A%2F%2Fexodus.desync.com%3A6969"],"infoHash":"53d8785c26be6b179f22d78659088d3c35c64d71","infoHashBuffer":{"type":"Buffer","data":[83,216,120,92,38,190,107,23,159,34,215,134,89,8,141,60,53,198,77,113]},"announce":[],"urlList":[]}}